<svg width="20" height="20" viewBox="0 0 20 20" fill="none" xmlns="http://www.w3.org/2000/svg">
<g clip-path="url(#clip0)">
<path d="M10 20C15.5229 20 20 15.5229 20 10C20 4.47716 15.5229 0 10 0C4.47716 0 0 4.47716 0 10C0 15.5229 4.47716 20 10 20Z" fill="#E24C4B"/>
<path d="M20 10C20 15.5 15.5 20 10 20C6.81253 20 4.00003 18.5625 2.1875 16.2501C3.875 17.6251 6.06251 18.4376 8.43749 18.4376C13.9375 18.4376 18.4375 13.9376 18.4375 8.43755C18.4375 6.06257 17.625 3.87506 16.25 2.18756C18.5625 4 20 6.8125 20 10Z" fill="#D1403F"/>
<path d="M14.5625 14.5625C14.1875 14.9375 13.5625 14.9375 13.1875 14.5625L9.99998 11.375L6.81249 14.5625C6.43751 14.9375 5.81247 14.9375 5.43749 14.5625C5.0625 14.1875 5.0625 13.5625 5.43749 13.1875L8.62498 10L5.43749 6.81252C5.0625 6.43754 5.0625 5.81251 5.43749 5.43752C5.81247 5.06253 6.43751 5.06253 6.81249 5.43752L9.99998 8.62501L13.1875 5.43752C13.5625 5.06253 14.1875 5.06253 14.5625 5.43752C14.9375 5.81251 14.9375 6.43754 14.5625 6.81252L11.375 10L14.5625 13.1875C14.9375 13.5625 14.9375 14.1875 14.5625 14.5625Z" fill="white"/>
</g>
<defs>
<clipPath id="clip0">
<rect width="20" height="20" fill="white"/>
</clipPath>
</defs>
</svg>
